  0
SECTION
  2
HEADER
  9
$ACADVER
  1
AC1015
  9
$ACADMAINTVER
 70
     6
  9
$DWGCODEPAGE
  3
ANSI_1252
  9
$INSBASE
 10
0.0
 20
0.0
 30
0.0
  9
$EXTMIN
 10
-9.4400386692
 20
-50.0
 30
0.0
  9
$EXTMAX
 10
22.5847398086
 20
13.7779060257
 30
0.0
  9
$LIMMIN
 10
0.0
 20
0.0
  9
$LIMMAX
 10
420.0
 20
297.0
  9
$ORTHOMODE
 70
     0
  9
$REGENMODE
 70
     1
  9
$FILLMODE
 70
     1
  9
$QTEXTMODE
 70
     0
  9
$MIRRTEXT
 70
     1
  9
$LTSCALE
 40
1.0
  9
$ATTMODE
 70
     1
  9
$TEXTSIZE
 40
3.5
  9
$TRACEWID
 40
1.0
  9
$TEXTSTYLE
  7
Standard
  9
$CLAYER
  8
0
  9
$CELTYPE
  6
ByLayer
  9
$CECOLOR
 62
   256
  9
$CELTSCALE
 40
1.0
  9
$DISPSILH
 70
     0
  9
$DIMSCALE
 40
1.0
  9
$DIMASZ
 40
3.302
  9
$DIMEXO
 40
0.0
  9
$DIMDLI
 40
3.75
  9
$DIMRND
 40
0.0
  9
$DIMDLE
 40
0.0
  9
$DIMEXE
 40
1.0
  9
$DIMTP
 40
0.0
  9
$DIMTM
 40
0.0
  9
$DIMTXT
 40
3.5
  9
$DIMCEN
 40
2.5
  9
$DIMTSZ
 40
0.0
  9
$DIMTOL
 70
     0
  9
$DIMLIM
 70
     0
  9
$DIMTIH
 70
     1
  9
$DIMTOH
 70
     1
  9
$DIMSE1
 70
     0
  9
$DIMSE2
 70
     0
  9
$DIMTAD
 70
     1
  9
$DIMZIN
 70
     1
  9
$DIMBLK
  1

  9
$DIMASO
 70
     1
  9
$DIMSHO
 70
     1
  9
$DIMPOST
  1

  9
$DIMAPOST
  1

  9
$DIMALT
 70
     0
  9
$DIMALTD
 70
     3
  9
$DIMALTF
 40
0.0393700787
  9
$DIMLFAC
 40
1.0
  9
$DIMTOFL
 70
     1
  9
$DIMTVP
 40
0.0
  9
$DIMTIX
 70
     0
  9
$DIMSOXD
 70
     0
  9
$DIMSAH
 70
     0
  9
$DIMBLK1
  1

  9
$DIMBLK2
  1

  9
$DIMSTYLE
  2
ISO-25
  9
$DIMCLRD
 70
     0
  9
$DIMCLRE
 70
     0
  9
$DIMCLRT
 70
     0
  9
$DIMTFAC
 40
1.0
  9
$DIMGAP
 40
1.524
  9
$DIMJUST
 70
     0
  9
$DIMSD1
 70
     0
  9
$DIMSD2
 70
     0
  9
$DIMTOLJ
 70
     0
  9
$DIMTZIN
 70
     1
  9
$DIMALTZ
 70
     0
  9
$DIMALTTZ
 70
     0
  9
$DIMUPT
 70
     0
  9
$DIMDEC
 70
     2
  9
$DIMTDEC
 70
     2
  9
$DIMALTU
 70
     2
  9
$DIMALTTD
 70
     3
  9
$DIMTXSTY
  7
Standard
  9
$DIMAUNIT
 70
     0
  9
$DIMADEC
 70
     2
  9
$DIMALTRND
 40
0.0
  9
$DIMAZIN
 70
     0
  9
$DIMDSEP
 70
    44
  9
$DIMATFIT
 70
     3
  9
$DIMFRAC
 70
     0
  9
$DIMLDRBLK
  1

  9
$DIMLUNIT
 70
     2
  9
$DIMLWD
 70
    -2
  9
$DIMLWE
 70
    -2
  9
$DIMTMOVE
 70
     0
  9
$LUNITS
 70
     2
  9
$LUPREC
 70
     2
  9
$SKETCHINC
 40
1.0
  9
$FILLETRAD
 40
0.0
  9
$AUNITS
 70
     0
  9
$AUPREC
 70
     2
  9
$MENU
  1
.
  9
$ELEVATION
 40
0.0
  9
$PELEVATION
 40
0.0
  9
$THICKNESS
 40
0.0
  9
$LIMCHECK
 70
     0
  9
$CHAMFERA
 40
0.0
  9
$CHAMFERB
 40
0.0
  9
$CHAMFERC
 40
0.0
  9
$CHAMFERD
 40
0.0
  9
$SKPOLY
 70
     0
  9
$TDCREATE
 40
2460461.93760485
  9
$TDUCREATE
 40
2460462.145938183
  9
$TDUPDATE
 40
2460461.937621516
  9
$TDUUPDATE
 40
2460462.14595485
  9
$TDINDWG
 40
0.0000000116
  9
$TDUSRTIMER
 40
0.0000000116
  9
$USRTIMER
 70
     1
  9
$ANGBASE
 50
0.0
  9
$ANGDIR
 70
     0
  9
$PDMODE
 70
     0
  9
$PDSIZE
 40
-1.0
  9
$PLINEWID
 40
0.0
  9
$SPLFRAME
 70
     0
  9
$SPLINETYPE
 70
     6
  9
$SPLINESEGS
 70
     8
  9
$HANDSEED
  5
118
  9
$SURFTAB1
 70
     6
  9
$SURFTAB2
 70
     6
  9
$SURFTYPE
 70
     6
  9
$SURFU
 70
     6
  9
$SURFV
 70
     6
  9
$UCSBASE
  2

  9
$UCSNAME
  2

  9
$UCSORG
 10
0.0
 20
0.0
 30
0.0
  9
$UCSXDIR
 10
1.0
 20
0.0
 30
0.0
  9
$UCSYDIR
 10
0.0
 20
1.0
 30
0.0
  9
$UCSORTHOREF
  2

  9
$UCSORTHOVIEW
 70
     0
  9
$UCSORGTOP
 10
0.0
 20
0.0
 30
0.0
  9
$UCSORGBOTTOM
 10
0.0
 20
0.0
 30
0.0
  9
$UCSORGLEFT
 10
0.0
 20
0.0
 30
0.0
  9
$UCSORGRIGHT
 10
0.0
 20
0.0
 30
0.0
  9
$UCSORGFRONT
 10
0.0
 20
0.0
 30
0.0
  9
$UCSORGBACK
 10
0.0
 20
0.0
 30
0.0
  9
$PUCSBASE
  2

  9
$PUCSNAME
  2

  9
$PUCSORG
 10
0.0
 20
0.0
 30
0.0
  9
$PUCSXDIR
 10
1.0
 20
0.0
 30
0.0
  9
$PUCSYDIR
 10
0.0
 20
1.0
 30
0.0
  9
$PUCSORTHOREF
  2

  9
$PUCSORTHOVIEW
 70
     0
  9
$PUCSORGTOP
 10
0.0
 20
0.0
 30
0.0
  9
$PUCSORGBOTTOM
 10
0.0
 20
0.0
 30
0.0
  9
$PUCSORGLEFT
 10
0.0
 20
0.0
 30
0.0
  9
$PUCSORGRIGHT
 10
0.0
 20
0.0
 30
0.0
  9
$PUCSORGFRONT
 10
0.0
 20
0.0
 30
0.0
  9
$PUCSORGBACK
 10
0.0
 20
0.0
 30
0.0
  9
$USERI1
 70
     0
  9
$USERI2
 70
     0
  9
$USERI3
 70
     0
  9
$USERI4
 70
     0
  9
$USERI5
 70
     0
  9
$USERR1
 40
0.0
  9
$USERR2
 40
0.0
  9
$USERR3
 40
0.0
  9
$USERR4
 40
0.0
  9
$USERR5
 40
0.0
  9
$WORLDVIEW
 70
     1
  9
$SHADEDGE
 70
     3
  9
$SHADEDIF
 70
    70
  9
$TILEMODE
 70
     1
  9
$MAXACTVP
 70
    64
  9
$PINSBASE
 10
0.0
 20
0.0
 30
0.0
  9
$PLIMCHECK
 70
     0
  9
$PEXTMIN
 10
1.0000000000E+20
 20
1.0000000000E+20
 30
1.0000000000E+20
  9
$PEXTMAX
 10
-1.0000000000E+20
 20
-1.0000000000E+20
 30
-1.0000000000E+20
  9
$PLIMMIN
 10
0.0
 20
0.0
  9
$PLIMMAX
 10
420.0
 20
297.0
  9
$UNITMODE
 70
     0
  9
$VISRETAIN
 70
     1
  9
$PLINEGEN
 70
     0
  9
$PSLTSCALE
 70
     1
  9
$TREEDEPTH
 70
  3020
  9
$CMLSTYLE
  2
Standard
  9
$CMLJUST
 70
     0
  9
$CMLSCALE
 40
20.0
  9
$PROXYGRAPHICS
 70
     1
  9
$MEASUREMENT
 70
     1
  9
$CELWEIGHT
370
    -1
  9
$ENDCAPS
280
     0
  9
$JOINSTYLE
280
     0
  9
$LWDISPLAY
290
     1
  9
$INSUNITS
 70
     4
  9
$HYPERLINKBASE
  1

  9
$STYLESHEET
  1

  9
$XEDIT
290
     1
  9
$CEPSNTYPE
380
     0
  9
$PSTYLEMODE
290
     1
  9
$FINGERPRINTGUID
  2
{e02fedbf-0d8f-416c-b9d1-35bdda8511f7}
  9
$VERSIONGUID
  2
{FAEB1C32-E019-11D5-929B-00C0DF256EC4}
  9
$EXTNAMES
290
     1
  9
$PSVPSCALE
 40
0.0
  9
$OLESTARTUP
290
     0
  0
ENDSEC
  0
SECTION
  2
CLASSES
  0
CLASS
  1
ACDBDICTIONARYWDFLT
  2
AcDbDictionaryWithDefault
  3
ObjectDBX Classes
 90
        0
280
     0
281
     0
  0
CLASS
  1
VISUALSTYLE
  2
AcDbVisualStyle
  3
ObjectDBX Classes
 90
     4095
280
     0
281
     0
  0
CLASS
  1
MATERIAL
  2
AcDbMaterial
  3
ObjectDBX Classes
 90
     1153
280
     0
281
     0
  0
CLASS
  1
SCALE
  2
AcDbScale
  3
ObjectDBX Classes
 90
     1153
280
     0
281
     0
  0
CLASS
  1
TABLESTYLE
  2
AcDbTableStyle
  3
ObjectDBX Classes
 90
     4095
280
     0
281
     0
  0
CLASS
  1
MLEADERSTYLE
  2
AcDbMLeaderStyle
  3
ACDB_MLEADERSTYLE_CLASS
 90
     4095
280
     0
281
     0
  0
CLASS
  1
SUN
  2
AcDbSun
  3
SCENEOE
 90
     1153
280
     0
281
     0
  0
CLASS
  1
ACDBPLACEHOLDER
  2
AcDbPlaceHolder
  3
ObjectDBX Classes
 90
        0
280
     0
281
     0
  0
CLASS
  1
LAYOUT
  2
AcDbLayout
  3
ObjectDBX Classes
 90
        0
280
     0
281
     0
  0
ENDSEC
  0
SECTION
  2
TABLES
  0
TABLE
  2
VPORT
  5
8
330
0
100
AcDbSymbolTable
 70
     1
  0
VPORT
  5
29
330
8
100
AcDbSymbolTableRecord
100
AcDbViewportTableRecord
  2
*Active
 70
     0
 10
0.0
 20
0.0
 11
1.0
 21
1.0
 12
6.5723505697
 22
-18.1110469872
 13
0.0
 23
0.0
 14
10.0
 24
10.0
 15
10.0
 25
10.0
 16
0.0
 26
0.0
 36
1.0
 17
0.0
 27
0.0
 37
0.0
 40
65.0534641462
 41
0.5021296633
 42
50.0
 43
0.0
 44
0.0
 50
0.0
 51
0.0
 71
     0
 72
   100
 73
     1
 74
     3
 75
     0
 76
     0
 77
     0
 78
     0
281
     0
 65
     1
110
0.0
120
0.0
130
0.0
111
1.0
121
0.0
131
0.0
112
0.0
122
1.0
132
0.0
 79
     0
146
0.0
  0
ENDTAB
  0
TABLE
  2
LTYPE
  5
5
330
0
100
AcDbSymbolTable
 70
     6
  0
LTYPE
  5
14
330
5
100
AcDbSymbolTableRecord
100
AcDbLinetypeTableRecord
  2
ByBlock
 70
     0
  3

 72
    65
 73
     0
 40
0.0
  0
LTYPE
  5
15
330
5
100
AcDbSymbolTableRecord
100
AcDbLinetypeTableRecord
  2
ByLayer
 70
     0
  3

 72
    65
 73
     0
 40
0.0
  0
LTYPE
  5
16
330
5
100
AcDbSymbolTableRecord
100
AcDbLinetypeTableRecord
  2
Continuous
 70
     0
  3
Solid line
 72
    65
 73
     0
 40
0.0
  0
LTYPE
  5
5E
330
5
100
AcDbSymbolTableRecord
100
AcDbLinetypeTableRecord
  2
HIDDEN
 70
     0
  3
Hidden __ __ __ __ __ __ __ __ __ __ __ __ __ __
 72
    65
 73
     2
 40
1.905
 49
1.27
 74
     0
 49
-0.635
 74
     0
  0
LTYPE
  5
5F
330
5
100
AcDbSymbolTableRecord
100
AcDbLinetypeTableRecord
  2
PHANTOM
 70
     0
  3
Phantom ______  __  __  ______  __  __  ______
 72
    65
 73
     6
 40
12.7
 49
6.35
 74
     0
 49
-1.27
 74
     0
 49
1.27
 74
     0
 49
-1.27
 74
     0
 49
1.27
 74
     0
 49
-1.27
 74
     0
  0
LTYPE
  5
60
330
5
100
AcDbSymbolTableRecord
100
AcDbLinetypeTableRecord
  2
CENTER
 70
     0
  3
Center ____ _ ____ _ ____ _ ____ _ ____ _ ____
 72
    65
 73
     4
 40
10.16
 49
6.35
 74
     0
 49
-1.27
 74
     0
 49
1.27
 74
     0
 49
-1.27
 74
     0
  0
LTYPE
  5
61
330
5
100
AcDbSymbolTableRecord
100
AcDbLinetypeTableRecord
  2
CENTERX2
 70
     0
  3
Center (2x) ________  __  ________  __  _____
 72
    65
 73
     4
 40
20.32
 49
12.7
 74
     0
 49
-2.54
 74
     0
 49
2.54
 74
     0
 49
-2.54
 74
     0
  0
LTYPE
  5
62
330
5
100
AcDbSymbolTableRecord
100
AcDbLinetypeTableRecord
  2
DOT2
 70
     0
  3
Dot (.5x) ........................................
 72
    65
 73
     2
 40
0.635
 49
0.0
 74
     0
 49
-0.635
 74
     0
  0
ENDTAB
  0
TABLE
  2
LAYER
  5
2
330
0
100
AcDbSymbolTable
 70
     1
  0
LAYER
  5
10
330
2
100
AcDbSymbolTableRecord
100
AcDbLayerTableRecord
  2
0
 70
     0
 62
     7
  6
Continuous
370
    -3
390
F
  0
ENDTAB
  0
TABLE
  2
STYLE
  5
3
330
0
100
AcDbSymbolTable
 70
     2
  0
STYLE
  5
11
330
3
100
AcDbSymbolTableRecord
100
AcDbTextStyleTableRecord
  2
Standard
 70
     0
 40
0.0
 41
1.0
 50
0.0
 71
     0
 42
3.5
  3
txt
  4

  0
STYLE
  5
114
330
3
100
AcDbSymbolTableRecord
100
AcDbTextStyleTableRecord
  2
SLDTEXTSTYLE0
 70
     0
 40
0.0
 41
0.7
 50
0.0
 71
     0
 42
3.5
  3
TXT
  4

  0
ENDTAB
  0
TABLE
  2
VIEW
  5
6
330
0
100
AcDbSymbolTable
 70
     0
  0
ENDTAB
  0
TABLE
  2
UCS
  5
7
330
0
100
AcDbSymbolTable
 70
     0
  0
ENDTAB
  0
TABLE
  2
APPID
  5
9
330
0
100
AcDbSymbolTable
 70
     1
  0
APPID
  5
12
330
9
100
AcDbSymbolTableRecord
100
AcDbRegAppTableRecord
  2
ACAD
 70
     0
  0
ENDTAB
  0
TABLE
  2
DIMSTYLE
  5
A
330
0
100
AcDbSymbolTable
 70
     1
100
AcDbDimStyleTable
  0
DIMSTYLE
105
27
330
A
100
AcDbSymbolTableRecord
100
AcDbDimStyleTableRecord
  2
ISO-25
 70
     0
 41
2.5
 42
0.625
 43
3.75
 44
1.25
 73
     0
 74
     0
 77
     1
 78
     8
140
2.5
141
2.5
143
0.0393700787
147
0.625
171
     3
172
     1
178
     0
271
     2
272
     2
274
     3
278
    44
283
     0
284
     8
340
11
  0
ENDTAB
  0
TABLE
  2
BLOCK_RECORD
  5
1
330
0
100
AcDbSymbolTable
 70
     1
  0
BLOCK_RECORD
  5
1F
330
1
100
AcDbSymbolTableRecord
100
AcDbBlockTableRecord
  2
*Model_Space
340
22
  0
BLOCK_RECORD
  5
1B
330
1
100
AcDbSymbolTableRecord
100
AcDbBlockTableRecord
  2
*Paper_Space
340
1E
  0
BLOCK_RECORD
  5
23
330
1
100
AcDbSymbolTableRecord
100
AcDbBlockTableRecord
  2
*Paper_Space0
340
26
  0
ENDTAB
  0
ENDSEC
  0
SECTION
  2
BLOCKS
  0
BLOCK
  5
20
330
1F
100
AcDbEntity
  8
0
100
AcDbBlockBegin
  2
*Model_Space
 70
     0
 10
0.0
 20
0.0
 30
0.0
  3
*Model_Space
  1

  0
ENDBLK
  5
21
330
1F
100
AcDbEntity
  8
0
100
AcDbBlockEnd
  0
BLOCK
  5
1C
330
1B
100
AcDbEntity
 67
     1
  8
0
100
AcDbBlockBegin
  2
*Paper_Space
 70
     0
 10
0.0
 20
0.0
 30
0.0
  3
*Paper_Space
  1

  0
ENDBLK
  5
1D
330
1B
100
AcDbEntity
 67
     1
  8
0
100
AcDbBlockEnd
  0
BLOCK
  5
24
330
23
100
AcDbEntity
  8
0
100
AcDbBlockBegin
  2
*Paper_Space0
 70
     0
 10
0.0
 20
0.0
 30
0.0
  3
*Paper_Space0
  1

  0
ENDBLK
  5
25
330
23
100
AcDbEntity
  8
0
100
AcDbBlockEnd
  0
ENDSEC
  0
SECTION
  2
ENTITIES
  0
SPLINE
  5
64
330
1F
100
AcDbEntity
  8
0
  6
Continuous
 62
     7
370
    25
100
AcDbSpline
210
0.0
220
0.0
230
1.0
 70
     8
 71
     3
 72
    12
 73
     8
 74
     0
 42
0.00000001
 43
0.00000001
 40
0.0
 40
0.0
 40
0.0
 40
0.0
 40
0.2500000000000009
 40
0.2500000000000009
 40
0.5000000000000019
 40
0.5000000000000019
 40
1.0
 40
1.0
 40
1.0
 40
1.0
 10
2.415450907364848
 20
6.282122850835594
 30
0.0
 10
2.415450907364848
 20
6.282122850835598
 30
0.0
 10
2.403529682088585
 20
6.278713780625889
 30
0.0
 10
2.369010534311806
 20
6.268924847687193
 30
0.0
 10
2.347030069857404
 20
6.262725185088393
 30
0.0
 10
2.277590998692899
 20
6.243327754228912
 30
0.0
 10
2.225430890652623
 20
6.229003597132983
 30
0.0
 10
2.174089087315442
 20
6.21520063154157
 30
0.0
  0
SPLINE
  5
68
330
1F
100
AcDbEntity
  8
0
  6
Continuous
 62
     7
370
    25
100
AcDbSpline
210
0.0
220
0.0
230
1.0
 70
     8
 71
     3
 72
    23
 73
    19
 74
     0
 42
0.00000001
 43
0.00000001
 40
0.0
 40
0.0
 40
0.0
 40
0.0
 40
0.0000466953004669
 40
0.0000466953004669
 40
0.0000466953004669
 40
0.0000932688127693
 40
0.0000932688127693
 40
0.0000932688127693
 40
0.0001416485071363
 40
0.0001416485071363
 40
0.0001416485071363
 40
0.0001946046935242
 40
0.0001946046935242
 40
0.0001946046935242
 40
0.0002451389100055
 40
0.0002451389100055
 40
0.0002451389100055
 40
0.0002478794720295
 40
0.0002478794720295
 40
0.0002478794720295
 40
0.0002478794720295
 10
2.816663141026305
 20
9.423316341426725
 30
0.0
 10
2.816663141026305
 20
9.423316341426725
 30
0.0
 10
2.814769505028448
 20
9.42128259197724
 30
0.0
 10
2.811196810916849
 20
9.417449392391715
 30
0.0
 10
2.807629337972281
 20
9.413621794678237
 30
0.0
 10
2.802306107127828
 20
9.407912858540577
 30
0.0
 10
2.795743165681905
 20
9.400885288242181
 30
0.0
 10
2.788921846136505
 20
9.393581047753656
 30
0.0
 10
2.780603948201291
 20
9.384684291023095
 30
0.0
 10
2.771466110518846
 20
9.374930331621682
 30
0.0
 10
2.76147030128694
 20
9.36426055165616
 30
0.0
 10
2.750255903859962
 20
9.352312031425194
 30
0.0
 10
2.738652069540449
 20
9.339979590857386
 30
0.0
 10
2.727558651012341
 20
9.328189615154123
 30
0.0
 10
2.715881412873241
 20
9.315806534184293
 30
0.0
 10
2.704277307871774
 20
9.303531311914762
 30
0.0
 10
2.703649820495189
 20
9.302867534138022
 30
0.0
 10
2.703022163172063
 20
9.30220374877633
 30
0.0
 10
2.702394565629244
 20
9.30153994056059
 30
0.0
  0
SPLINE
  5
6B
330
1F
100
AcDbEntity
  8
0
  6
Continuous
 62
     7
370
    25
100
AcDbSpline
210
0.0
220
0.0
230
1.0
 70
     8
 71
     3
 72
    23
 73
    19
 74
     0
 42
0.00000001
 43
0.00000001
 40
0.0
 40
0.0
 40
0.0
 40
0.0
 40
0.0000466953004669
 40
0.0000466953004669
 40
0.0000466953004669
 40
0.0000932688127693
 40
0.0000932688127693
 40
0.0000932688127693
 40
0.0001416485071363
 40
0.0001416485071363
 40
0.0001416485071363
 40
0.0001946046935242
 40
0.0001946046935242
 40
0.0001946046935242
 40
0.0002451389100055
 40
0.0002451389100055
 40
0.0002451389100055
 40
0.0002478794720295
 40
0.0002478794720295
 40
0.0002478794720295
 40
0.0002478794720295
 10
2.062315432630216
 20
9.62544320070372
 30
0.0
 10
2.062315432630216
 20
9.62544320070372
 30
0.0
 10
2.062938494785139
 20
9.622735104016604
 30
0.0
 10
2.064115938852971
 20
9.617629108741959
 30
0.0
 10
2.065291662193542
 20
9.612530575414338
 30
0.0
 10
2.067047247266219
 20
9.604924876268315
 30
0.0
 10
2.06921713613274
 20
9.595557351140062
 30
0.0
 10
2.071472451902126
 20
9.585821033548953
 30
0.0
 10
2.07422758445483
 20
9.57395726724139
 30
0.0
 10
2.077264204322779
 20
9.56094117177106
 30
0.0
 10
2.080585939066234
 20
9.546702966652175
 30
0.0
 10
2.084323632010644
 20
9.530748045881037
 30
0.0
 10
2.088206627028743
 20
9.514265921898895
 30
0.0
 10
2.091918821437266
 20
9.498508794165815
 30
0.0
 10
2.095840065826853
 20
9.481946112399278
 30
0.0
 10
2.099751904411543
 20
9.46551340557603
 30
0.0
 10
2.099963435531852
 20
9.464624813470612
 30
0.0
 10
2.100175110037702
 20
9.463736129823163
 30
0.0
 10
2.100386721345264
 20
9.462847456273678
 30
0.0
  0
SPLINE
  5
6D
330
1F
100
AcDbEntity
  8
0
  6
Continuous
 62
     7
370
    25
100
AcDbSpline
210
0.0
220
0.0
230
1.0
 70
     8
 71
     3
 72
    12
 73
     8
 74
     0
 42
0.00000001
 43
0.00000001
 40
0.0
 40
0.0
 40
0.0
 40
0.0
 40
0.2499999999999987
 40
0.2499999999999987
 40
0.4999999999999973
 40
0.4999999999999973
 40
1.0
 40
1.0
 40
1.0
 40
1.0
 10
0.8391786739946087
 20
6.704483722818743
 30
0.0
 10
0.8391786739946087
 20
6.704483722818743
 30
0.0
 10
0.8477982228232367
 20
6.695570768775718
 30
0.0
 10
0.8727982152455689
 20
6.669833730286481
 30
0.0
 10
0.8887340245506596
 20
6.653474432753822
 30
0.0
 10
0.939171308764579
 20
6.601956229279113
 30
0.0
 10
0.977181208843653
 20
6.563471091326118
 30
0.0
 10
1.014743032014031
 20
6.52584647080778
 30
0.0
  0
SPLINE
  5
70
330
1F
100
AcDbEntity
  8
0
  6
Continuous
 62
     7
370
    25
100
AcDbSpline
210
0.0
220
0.0
230
1.0
 70
     8
 71
     3
 72
    12
 73
     8
 74
     0
 42
0.00000001
 43
0.00000001
 40
0.0
 40
0.0
 40
0.0
 40
0.0
 40
0.2500000000000013
 40
0.2500000000000013
 40
0.5000000000000027
 40
0.5000000000000027
 40
1.0
 40
1.0
 40
1.0
 40
1.0
 10
-0.9383649617927684
 20
6.704483722818743
 30
0.0
 10
-0.9383649617927684
 20
6.704483722818743
 30
0.0
 10
-0.9469845106213972
 20
6.695570768775721
 30
0.0
 10
-0.9719845030437303
 20
6.669833730286481
 30
0.0
 10
-0.9879203123488219
 20
6.653474432753825
 30
0.0
 10
-1.03835759656274
 20
6.601956229279113
 30
0.0
 10
-1.076367496641813
 20
6.563471091326118
 30
0.0
 10
-1.113929319812193
 20
6.52584647080778
 30
0.0
  0
SPLINE
  5
73
330
1F
100
AcDbEntity
  8
0
  6
Continuous
 62
     7
370
    25
100
AcDbSpline
210
0.0
220
0.0
230
1.0
 70
     8
 71
     3
 72
    23
 73
    19
 74
     0
 42
0.00000001
 43
0.00000001
 40
0.0
 40
0.0
 40
0.0
 40
0.0
 40
0.0000466953004669
 40
0.0000466953004669
 40
0.0000466953004669
 40
0.0000932688127693
 40
0.0000932688127693
 40
0.0000932688127693
 40
0.0001416485071363
 40
0.0001416485071363
 40
0.0001416485071363
 40
0.0001946046935242
 40
0.0001946046935242
 40
0.0001946046935242
 40
0.0002451389100055
 40
0.0002451389100055
 40
0.0002451389100055
 40
0.0002478794720294
 40
0.0002478794720294
 40
0.0002478794720294
 40
0.0002478794720294
 10
-2.161501720428382
 20
9.62544320070372
 30
0.0
 10
-2.161501720428382
 20
9.62544320070372
 30
0.0
 10
-2.162124782583302
 20
9.622735104016602
 30
0.0
 10
-2.163302226651132
 20
9.617629108741959
 30
0.0
 10
-2.164477949991705
 20
9.612530575414338
 30
0.0
 10
-2.16623353506438
 20
9.604924876268315
 30
0.0
 10
-2.168403423930902
 20
9.595557351140062
 30
0.0
 10
-2.170658739700288
 20
9.585821033548953
 30
0.0
 10
-2.173413872252993
 20
9.57395726724139
 30
0.0
 10
-2.176450492120943
 20
9.56094117177106
 30
0.0
 10
-2.179772226864397
 20
9.546702966652175
 30
0.0
 10
-2.183509919808807
 20
9.530748045881037
 30
0.0
 10
-2.187392914826905
 20
9.514265921898895
 30
0.0
 10
-2.19110510923543
 20
9.498508794165815
 30
0.0
 10
-2.195026353625026
 20
9.481946112399278
 30
0.0
 10
-2.198938192209704
 20
9.465513405576026
 30
0.0
 10
-2.199149723330011
 20
9.464624813470612
 30
0.0
 10
-2.199361397835865
 20
9.463736129823163
 30
0.0
 10
-2.199573009143427
 20
9.462847456273678
 30
0.0
  0
SPLINE
  5
75
330
1F
100
AcDbEntity
  8
0
  6
Continuous
 62
     7
370
    25
100
AcDbSpline
210
0.0
220
0.0
230
1.0
 70
     8
 71
     3
 72
    12
 73
     8
 74
     0
 42
0.00000001
 43
0.00000001
 40
0.0
 40
0.0
 40
0.0
 40
0.0
 40
0.2499999999999995
 40
0.2499999999999995
 40
0.499999999999999
 40
0.499999999999999
 40
1.0
 40
1.0
 40
1.0
 40
1.0
 10
-2.514637195163092
 20
6.282122850835563
 30
0.0
 10
-2.514637195163092
 20
6.28212285083556
 30
0.0
 10
-2.50271596988683
 20
6.278713780625854
 30
0.0
 10
-2.468196822110049
 20
6.268924847687162
 30
0.0
 10
-2.446216357655649
 20
6.262725185088359
 30
0.0
 10
-2.376777286491142
 20
6.243327754228881
 30
0.0
 10
-2.324617178450871
 20
6.229003597132934
 30
0.0
 10
-2.273275375113685
 20
6.215200631541538
 30
0.0
  0
SPLINE
  5
77
330
1F
100
AcDbEntity
  8
0
  6
Continuous
 62
     7
370
    25
100
AcDbSpline
210
0.0
220
0.0
230
1.0
 70
     8
 71
     3
 72
    12
 73
     8
 74
     0
 42
0.00000001
 43
0.00000001
 40
0.0
 40
0.0
 40
0.0
 40
0.0
 40
0.2499999999999982
 40
0.2499999999999982
 40
0.4999999999999964
 40
0.4999999999999964
 40
1.0
 40
1.0
 40
1.0
 40
1.0
 10
-4.054035140090321
 20
5.393351032941865
 30
0.0
 10
-4.054035140090321
 20
5.393351032941869
 30
0.0
 10
-4.05704341132356
 20
5.381322413903534
 30
0.0
 10
-4.065825520611098
 20
5.346533488542509
 30
0.0
 10
-4.071446687532843
 20
5.324398016638612
 30
0.0
 10
-4.089367555222635
 20
5.254563301565217
 30
0.0
 10
-4.103042525309871
 20
5.202229244390226
 30
0.0
 10
-4.116759708128765
 20
5.150864455628422
 30
0.0
  0
SPLINE
  5
79
330
1F
100
AcDbEntity
  8
0
  6
Continuous
 62
     7
370
    25
100
AcDbSpline
210
0.0
220
0.0
230
1.0
 70
     8
 71
     3
 72
    23
 73
    19
 74
     0
 42
0.00000001
 43
0.00000001
 40
0.0
 40
0.0
 40
0.0
 40
0.0
 40
0.0000466953004669
 40
0.0000466953004669
 40
0.0000466953004669
 40
0.0000932688127693
 40
0.0000932688127693
 40
0.0000932688127693
 40
0.0001416485071363
 40
0.0001416485071363
 40
0.0001416485071363
 40
0.0001946046935242
 40
0.0001946046935242
 40
0.0001946046935242
 40
0.0002451389100055
 40
0.0002451389100055
 40
0.0002451389100055
 40
0.0002478794720294
 40
0.0002478794720294
 40
0.0002478794720294
 40
0.0002478794720294
 10
-2.91584942882459
 20
9.423316341426682
 30
0.0
 10
-2.91584942882459
 20
9.423316341426682
 30
0.0
 10
-2.913955792826732
 20
9.421282591977203
 30
0.0
 10
-2.910383098715134
 20
9.417449392391672
 30
0.0
 10
-2.906815625770566
 20
9.413621794678198
 30
0.0
 10
-2.901492394926111
 20
9.407912858540538
 30
0.0
 10
-2.894929453480188
 20
9.400885288242147
 30
0.0
 10
-2.888108133934787
 20
9.393581047753623
 30
0.0
 10
-2.879790235999573
 20
9.38468429102306
 30
0.0
 10
-2.870652398317129
 20
9.374930331621643
 30
0.0
 10
-2.860656589085221
 20
9.364260551656127
 30
0.0
 10
-2.849442191658246
 20
9.352312031425155
 30
0.0
 10
-2.837838357338734
 20
9.339979590857347
 30
0.0
 10
-2.826744938810624
 20
9.328189615154084
 30
0.0
 10
-2.815067700671527
 20
9.315806534184254
 30
0.0
 10
-2.803463595670054
 20
9.303531311914726
 30
0.0
 10
-2.802836108293469
 20
9.302867534137986
 30
0.0
 10
-2.802208450970345
 20
9.302203748776297
 30
0.0
 10
-2.801580853427526
 20
9.301539940560554
 30
0.0
  0
SPLINE
  5
7D
330
1F
100
AcDbEntity
  8
0
  6
Continuous
 62
     7
370
    25
100
AcDbSpline
210
0.0
220
0.0
230
1.0
 70
     8
 71
     3
 72
    23
 73
    19
 74
     0
 42
0.00000001
 43
0.00000001
 40
0.0
 40
0.0
 40
0.0
 40
0.0
 40
0.0000466953004669
 40
0.0000466953004669
 40
0.0000466953004669
 40
0.0000932688127693
 40
0.0000932688127693
 40
0.0000932688127693
 40
0.0001416485071363
 40
0.0001416485071363
 40
0.0001416485071363
 40
0.0001946046935242
 40
0.0001946046935242
 40
0.0001946046935242
 40
0.0002451389100055
 40
0.0002451389100055
 40
0.0002451389100055
 40
0.0002478794720295
 40
0.0002478794720295
 40
0.0002478794720295
 40
0.0002478794720295
 10
-6.573782384313798
 20
7.311407764897384
 30
0.0
 10
-6.573782384313798
 20
7.311407764897384
 30
0.0
 10
-6.572967923624542
 20
7.308750953292975
 30
0.0
 10
-6.571434622461498
 20
7.303740309639616
 30
0.0
 10
-6.569903562078446
 20
7.298736988585568
 30
0.0
 10
-6.567621093776874
 20
7.291272467375234
 30
0.0
 10
-6.564816510094546
 20
7.282075008210317
 30
0.0
 10
-6.561901512048832
 20
7.272515451952406
 30
0.0
 10
-6.558355643676487
 20
7.260863562669143
 30
0.0
 10
-6.554477385888601
 20
7.24807298339978
 30
0.0
 10
-6.550234990001623
 20
7.234081468690809
 30
0.0
 10
-6.54549446665746
 20
7.218395255515424
 30
0.0
 10
-6.540616176994833
 20
7.202179819929516
 30
0.0
 10
-6.535952467789862
 20
7.18667764981773
 30
0.0
 10
-6.531067024162414
 20
7.170373324458315
 30
0.0
 10
-6.526238422340642
 20
7.154186263604093
 30
0.0
 10
-6.525977317611813
 20
7.153310954707049
 30
0.0
 10
-6.525716291287487
 20
7.152435494839505
 30
0.0
 10
-6.525455215280821
 20
7.151560075316202
 30
0.0
  0
SPLINE
  5
7F
330
1F
100
AcDbEntity
  8
0
  6
Continuous
 62
     7
370
    25
100
AcDbSpline
210
0.0
220
0.0
230
1.0
 70
     8
 71
     3
 72
    23
 73
    19
 74
     0
 42
0.00000001
 43
0.00000001
 40
0.0
 40
0.0
 40
0.0
 40
0.0
 40
0.0000466953004669
 40
0.0000466953004669
 40
0.0000466953004669
 40
0.0000932688127693
 40
0.0000932688127693
 40
0.0000932688127693
 40
0.0001416485071363
 40
0.0001416485071363
 40
0.0001416485071363
 40
0.0001946046935242
 40
0.0001946046935242
 40
0.0001946046935242
 40
0.0002451389100055
 40
0.0002451389100055
 40
0.0002451389100055
 40
0.0002478794720294
 40
0.0002478794720294
 40
0.0002478794720294
 40
0.0002478794720294
 10
-7.126003233432975
 20
6.759186915778203
 30
0.0
 10
-7.126003233432975
 20
6.759186915778203
 30
0.0
 10
-7.123346421828566
 20
6.758372455088947
 30
0.0
 10
-7.118335778175206
 20
6.756839153925904
 30
0.0
 10
-7.11333245712116
 20
6.755308093542848
 30
0.0
 10
-7.105867935910824
 20
6.753025625241282
 30
0.0
 10
-7.096670476745908
 20
6.750221041558952
 30
0.0
 10
-7.087110920487997
 20
6.747306043513239
 30
0.0
 10
-7.075459031204738
 20
6.743760175140893
 30
0.0
 10
-7.062668451935374
 20
6.739881917353006
 30
0.0
 10
-7.048676937226399
 20
6.735639521466029
 30
0.0
 10
-7.032990724051018
 20
6.730898998121866
 30
0.0
 10
-7.01677528846511
 20
6.726020708459238
 30
0.0
 10
-7.001273118353322
 20
6.721356999254267
 30
0.0
 10
-6.984968792993906
 20
6.716471555626831
 30
0.0
 10
-6.968781732139687
 20
6.711642953805046
 30
0.0
 10
-6.967906423242644
 20
6.711381849076215
 30
0.0
 10
-6.967030963375099
 20
6.711120822751892
 30
0.0
 10
-6.966155543851793
 20
6.710859746745228
 30
0.0
  0
SPLINE
  5
81
330
1F
100
AcDbEntity
  8
0
  6
Continuous
 62
     7
370
    25
100
AcDbSpline
210
0.0
220
0.0
230
1.0
 70
     8
 71
     3
 72
    12
 73
     8
 74
     0
 42
0.00000001
 43
0.00000001
 40
0.0
 40
0.0
 40
0.0
 40
0.0
 40
0.2499999999999982
 40
0.2499999999999982
 40
0.4999999999999964
 40
0.4999999999999964
 40
1.0
 40
1.0
 40
1.0
 40
1.0
 10
-5.207946501477453
 20
4.239439671554726
 30
0.0
 10
-5.207946501477453
 20
4.239439671554726
 30
0.0
 10
-5.195917882439121
 20
4.242447942787969
 30
0.0
 10
-5.161128957078095
 20
4.251230052075505
 30
0.0
 10
-5.138993485174199
 20
4.25685121899725
 30
0.0
 10
-5.069158770100805
 20
4.274772086687046
 30
0.0
 10
-5.016824712925806
 20
4.288447056774256
 30
0.0
 10
-4.965459924164009
 20
4.302164239593172
 30
0.0
  0
SPLINE
  5
84
330
1F
100
AcDbEntity
  8
0
  6
Continuous
 62
     7
370
    25
100
AcDbSpline
210
0.0
220
0.0
230
1.0
 70
     8
 71
     3
 72
    12
 73
     8
 74
     0
 42
0.00000001
 43
0.00000001
 40
0.0
 40
0.0
 40
0.0
 40
0.0
 40
0.2500000000000005
 40
0.2500000000000005
 40
0.500000000000001
 40
0.500000000000001
 40
1.0
 40
1.0
 40
1.0
 40
1.0
 10
-6.096718319371143
 20
2.700041726627498
 30
0.0
 10
-6.096718319371142
 20
2.700041726627498
 30
0.0
 10
-6.093309249161438
 20
2.688120501351233
 30
0.0
 10
-6.083520316222741
 20
2.653601353574456
 30
0.0
 10
-6.077320653623942
 20
2.631620889120053
 30
0.0
 10
-6.057923222764464
 20
2.562181817955547
 30
0.0
 10
-6.043599065668549
 20
2.510021709915267
 30
0.0
 10
-6.029796100077119
 20
2.458679906578089
 30
0.0
  0
SPLINE
  5
88
330
1F
100
AcDbEntity
  8
0
  6
Continuous
 62
     7
370
    25
100
AcDbSpline
210
0.0
220
0.0
230
1.0
 70
     8
 71
     3
 72
    12
 73
     8
 74
     0
 42
0.00000001
 43
0.00000001
 40
0.0
 40
0.0
 40
0.0
 40
0.0
 40
0.2499999999999995
 40
0.2499999999999995
 40
0.499999999999999
 40
0.499999999999999
 40
1.0
 40
1.0
 40
1.0
 40
1.0
 10
-6.096718319371126
 20
-2.230046375900522
 30
0.0
 10
-6.096718319371126
 20
-2.230046375900522
 30
0.0
 10
-6.093309249161421
 20
-2.218125150624258
 30
0.0
 10
-6.083520316222724
 20
-2.18360600284748
 30
0.0
 10
-6.077320653623921
 20
-2.161625538393077
 30
0.0
 10
-6.057923222764446
 20
-2.092186467228571
 30
0.0
 10
-6.043599065668518
 20
-2.040026359188294
 30
0.0
 10
-6.029796100077103
 20
-1.988684555851113
 30
0.0
  0
SPLINE
  5
8B
330
1F
100
AcDbEntity
  8
0
  6
Continuous
 62
     7
370
    25
100
AcDbSpline
210
0.0
220
0.0
230
1.0
 70
     8
 71
     3
 72
    23
 73
    19
 74
     0
 42
0.00000001
 43
0.00000001
 40
0.0
 40
0.0
 40
0.0
 40
0.0
 40
0.0000466953004669
 40
0.0000466953004669
 40
0.0000466953004669
 40
0.0000932688127693
 40
0.0000932688127693
 40
0.0000932688127693
 40
0.0001416485071363
 40
0.0001416485071363
 40
0.0001416485071363
 40
0.0001946046935242
 40
0.0001946046935242
 40
0.0001946046935242
 40
0.0002451389100055
 40
0.0002451389100055
 40
0.0002451389100055
 40
0.0002478794720294
 40
0.0002478794720294
 40
0.0002478794720294
 40
0.0002478794720294
 10
-9.237911809962247
 20
-2.631258609562032
 30
0.0
 10
-9.237911809962247
 20
-2.631258609562032
 30
0.0
 10
-9.235878060512762
 20
-2.629364973564178
 30
0.0
 10
-9.232044860927232
 20
-2.625792279452579
 30
0.0
 10
-9.22821726321376
 20
-2.622224806508011
 30
0.0
 10
-9.222508327076097
 20
-2.616901575663558
 30
0.0
 10
-9.215480756777703
 20
-2.610338634217635
 30
0.0
 10
-9.208176516289178
 20
-2.603517314672234
 30
0.0
 10
-9.199279759558621
 20
-2.595199416737019
 30
0.0
 10
-9.189525800157206
 20
-2.586061579054572
 30
0.0
 10
-9.178856020191686
 20
-2.576065769822666
 30
0.0
 10
-9.166907499960715
 20
-2.564851372395691
 30
0.0
 10
-9.154575059392908
 20
-2.553247538076179
 30
0.0
 10
-9.142785083689644
 20
-2.542154119548069
 30
0.0
 10
-9.13040200271982
 20
-2.53047688140897
 30
0.0
 10
-9.118126780450286
 20
-2.518872776407499
 30
0.0
 10
-9.117463002673546
 20
-2.518245289030914
 30
0.0
 10
-9.116799217311856
 20
-2.51761763170779
 30
0.0
 10
-9.116135409096113
 20
-2.516990034164973
 30
0.0
  0
SPLINE
  5
8E
330
1F
100
AcDbEntity
  8
0
  6
Continuous
 62
     7
370
    25
100
AcDbSpline
210
0.0
220
0.0
230
1.0
 70
     8
 71
     3
 72
    23
 73
    19
 74
     0
 42
0.00000001
 43
0.00000001
 40
0.0
 40
0.0
 40
0.0
 40
0.0
 40
0.0000466953004669
 40
0.0000466953004669
 40
0.0000466953004669
 40
0.0000932688127693
 40
0.0000932688127693
 40
0.0000932688127693
 40
0.0001416485071363
 40
0.0001416485071363
 40
0.0001416485071363
 40
0.0001946046935242
 40
0.0001946046935242
 40
0.0001946046935242
 40
0.0002451389100055
 40
0.0002451389100055
 40
0.0002451389100055
 40
0.0002478794720294
 40
0.0002478794720294
 40
0.0002478794720294
 40
0.0002478794720294
 10
-9.237911809962263
 20
3.101253960288993
 30
0.0
 10
-9.237911809962263
 20
3.101253960288993
 30
0.0
 10
-9.23587806051278
 20
3.099360324291135
 30
0.0
 10
-9.232044860927253
 20
3.095787630179536
 30
0.0
 10
-9.228217263213775
 20
3.092220157234968
 30
0.0
 10
-9.222508327076119
 20
3.086896926390515
 30
0.0
 10
-9.215480756777724
 20
3.080333984944592
 30
0.0
 10
-9.2081765162892
 20
3.073512665399191
 30
0.0
 10
-9.19927975955864
 20
3.065194767463978
 30
0.0
 10
-9.189525800157224
 20
3.056056929781531
 30
0.0
 10
-9.178856020191708
 20
3.046061120549625
 30
0.0
 10
-9.166907499960733
 20
3.034846723122649
 30
0.0
 10
-9.154575059392924
 20
3.023242888803134
 30
0.0
 10
-9.142785083689665
 20
3.012149470275026
 30
0.0
 10
-9.130402002719832
 20
3.000472232135929
 30
0.0
 10
-9.118126780450307
 20
2.988868127134455
 30
0.0
 10
-9.117463002673567
 20
2.988240639757871
 30
0.0
 10
-9.116799217311877
 20
2.987612982434749
 30
0.0
 10
-9.116135409096131
 20
2.986985384891932
 30
0.0
  0
SPLINE
  5
90
330
1F
100
AcDbEntity
  8
0
  6
Continuous
 62
     7
370
    25
100
AcDbSpline
210
0.0
220
0.0
230
1.0
 70
     8
 71
     3
 72
    12
 73
     8
 74
     0
 42
0.00000001
 43
0.00000001
 40
0.0
 40
0.0
 40
0.0
 40
0.0
 40
0.2499999999999987
 40
0.2499999999999987
 40
0.4999999999999973
 40
0.4999999999999973
 40
1.0
 40
1.0
 40
1.0
 40
1.0
 10
-6.51907919135432
 20
1.123769493257175
 30
0.0
 10
-6.51907919135432
 20
1.123769493257175
 30
0.0
 10
-6.510166237311295
 20
1.132389042085804
 30
0.0
 10
-6.484429198822054
 20
1.157389034508138
 30
0.0
 10
-6.468069901289399
 20
1.173324843813228
 30
0.0
 10
-6.416551697814686
 20
1.223762128027148
 30
0.0
 10
-6.378066559861671
 20
1.261772028106196
 30
0.0
 10
-6.340441939343357
 20
1.299333851276598
 30
0.0
  0
SPLINE
  5
92
330
1F
100
AcDbEntity
  8
0
  6
Continuous
 62
     7
370
    25
100
AcDbSpline
210
0.0
220
0.0
230
1.0
 70
     8
 71
     3
 72
    12
 73
     8
 74
     0
 42
0.00000001
 43
0.00000001
 40
0.0
 40
0.0
 40
0.0
 40
0.0
 40
0.2499999999999987
 40
0.2499999999999987
 40
0.4999999999999973
 40
0.4999999999999973
 40
1.0
 40
1.0
 40
1.0
 40
1.0
 10
-6.51907919135431
 20
-0.6537741425302057
 30
0.0
 10
-6.51907919135431
 20
-0.6537741425302057
 30
0.0
 10
-6.510166237311288
 20
-0.662393691358832
 30
0.0
 10
-6.484429198822047
 20
-0.687393683781165
 30
0.0
 10
-6.468069901289392
 20
-0.7033294930862584
 30
0.0
 10
-6.416551697814679
 20
-0.753766777300175
 30
0.0
 10
-6.378066559861672
 20
-0.791776677379237
 30
0.0
 10
-6.340441939343348
 20
-0.8293385005496284
 30
0.0
  0
SPLINE
  5
95
330
1F
100
AcDbEntity
  8
0
  6
Continuous
 62
     7
370
    25
100
AcDbSpline
210
0.0
220
0.0
230
1.0
 70
     8
 71
     3
 72
    23
 73
    19
 74
     0
 42
0.00000001
 43
0.00000001
 40
0.0
 40
0.0
 40
0.0
 40
0.0
 40
0.0000466953004669
 40
0.0000466953004669
 40
0.0000466953004669
 40
0.0000932688127693
 40
0.0000932688127693
 40
0.0000932688127693
 40
0.0001416485071363
 40
0.0001416485071363
 40
0.0001416485071363
 40
0.0001946046935242
 40
0.0001946046935242
 40
0.0001946046935242
 40
0.0002451389100055
 40
0.0002451389100055
 40
0.0002451389100055
 40
0.0002478794720294
 40
0.0002478794720294
 40
0.0002478794720294
 40
0.0002478794720294
 10
-9.440038669239286
 20
-1.876910901165825
 30
0.0
 10
-9.440038669239286
 20
-1.876910901165825
 30
0.0
 10
-9.437330572552165
 20
-1.877533963320743
 30
0.0
 10
-9.432224577277525
 20
-1.878711407388576
 30
0.0
 10
-9.427126043949906
 20
-1.879887130729146
 30
0.0
 10
-9.419520344803878
 20
-1.881642715801823
 30
0.0
 10
-9.410152819675629
 20
-1.883812604668345
 30
0.0
 10
-9.400416502084516
 20
-1.886067920437731
 30
0.0
 10
-9.388552735776953
 20
-1.888823052990433
 30
0.0
 10
-9.375536640306622
 20
-1.891859672858383
 30
0.0
 10
-9.361298435187742
 20
-1.895181407601837
 30
0.0
 10
-9.3453435144166
 20
-1.898919100546251
 30
0.0
 10
-9.328861390434461
 20
-1.90280209556435
 30
0.0
 10
-9.313104262701378
 20
-1.906514289972874
 30
0.0
 10
-9.29654158093484
 20
-1.910435534362459
 30
0.0
 10
-9.280108874111589
 20
-1.914347372947149
 30
0.0
 10
-9.279220282006175
 20
-1.914558904067456
 30
0.0
 10
-9.278331598358726
 20
-1.914770578573307
 30
0.0
 10
-9.277442924809241
 20
-1.914982189880867
 30
0.0
  0
SPLINE
  5
97
330
1F
100
AcDbEntity
  8
0
  6
Continuous
 62
     7
370
    25
100
AcDbSpline
210
0.0
220
0.0
230
1.0
 70
     8
 71
     3
 72
    23
 73
    19
 74
     0
 42
0.00000001
 43
0.00000001
 40
0.0
 40
0.0
 40
0.0
 40
0.0
 40
0.0000466953004669
 40
0.0000466953004669
 40
0.0000466953004669
 40
0.0000932688127693
 40
0.0000932688127693
 40
0.0000932688127693
 40
0.0001416485071363
 40
0.0001416485071363
 40
0.0001416485071363
 40
0.0001946046935242
 40
0.0001946046935242
 40
0.0001946046935242
 40
0.0002451389100055
 40
0.0002451389100055
 40
0.0002451389100055
 40
0.0002478794720295
 40
0.0002478794720295
 40
0.0002478794720295
 40
0.0002478794720295
 10
-9.440038669239298
 20
2.346906251892766
 30
0.0
 10
-9.440038669239298
 20
2.346906251892766
 30
0.0
 10
-9.437330572552185
 20
2.347529314047692
 30
0.0
 10
-9.43222457727754
 20
2.348706758115524
 30
0.0
 10
-9.427126043949919
 20
2.349882481456095
 30
0.0
 10
-9.419520344803896
 20
2.351638066528772
 30
0.0
 10
-9.410152819675643
 20
2.353807955395294
 30
0.0
 10
-9.400416502084534
 20
2.356063271164679
 30
0.0
 10
-9.388552735776974
 20
2.358818403717385
 30
0.0
 10
-9.375536640306644
 20
2.361855023585331
 30
0.0
 10
-9.361298435187756
 20
2.365176758328789
 30
0.0
 10
-9.345343514416617
 20
2.368914451273195
 30
0.0
 10
-9.328861390434476
 20
2.372797446291295
 30
0.0
 10
-9.313104262701396
 20
2.376509640699819
 30
0.0
 10
-9.296541580934852
 20
2.380430885089414
 30
0.0
 10
-9.280108874111603
 20
2.384342723674097
 30
0.0
 10
-9.27922028200619
 20
2.384554254794405
 30
0.0
 10
-9.278331598358744
 20
2.384765929300255
 30
0.0
 10
-9.27744292480926
 20
2.384977540607816
 30
0.0
  0
CIRCLE
  5
AA
330
1F
100
AcDbEntity
  8
0
  6
Continuous
 62
     7
370
    25
100
AcDbCircle
 10
1.2306568561
 20
-39.4107973671
 30
0.0
 40
2.000000000000016
  0
CIRCLE
  5
AB
330
1F
100
AcDbEntity
  8
0
  6
Continuous
 62
     7
370
    25
100
AcDbCircle
 10
1.2306568561
 20
-14.4107973671
 30
0.0
 40
2.000000000000001
  0
CIRCLE
  5
AC
330
1F
100
AcDbEntity
  8
0
  6
Continuous
 62
     7
370
    25
100
AcDbCircle
 10
-0.0495931439
 20
0.2349976754
 30
0.0
 40
3.649999999999995
  0
CIRCLE
  5
AD
330
1F
100
AcDbEntity
  8
0
  6
Continuous
 62
     7
370
    25
100
AcDbCircle
 10
18.5847398086
 20
9.7779060257
 30
0.0
 40
2.149999999999988
  0
CIRCLE
  5
B7
330
1F
100
AcDbEntity
  8
0
  6
Continuous
 62
     7
370
    25
100
AcDbCircle
 10
18.5847398086
 20
9.7779060257
 30
0.0
 40
2.000000000000004
  0
SPLINE
  5
C0
330
1F
100
AcDbEntity
  8
0
  6
Continuous
 62
     7
370
    25
100
AcDbSpline
210
0.0
220
0.0
230
1.0
 70
     8
 71
     3
 72
    10
 73
     6
 74
     0
 42
0.00000001
 43
0.00000001
 40
0.0
 40
0.0
 40
0.0
 40
0.0
 40
0.5
 40
0.5
 40
1.0
 40
1.0
 40
1.0
 40
1.0
 10
-5.519343143899072
 20
-50.0
 30
0.0
 10
-5.519343143899072
 20
-50.0
 30
0.0
 10
-5.49502990261409
 20
-49.97569772922643
 30
0.0
 10
-5.436847693104465
 20
-49.91725484638002
 30
0.0
 10
-5.40284027316673
 20
-49.88297196147054
 30
0.0
 10
-5.369343143899074
 20
-49.8490505948789
 30
0.0
  0
CIRCLE
  5
C1
330
1F
100
AcDbEntity
  8
0
  6
Continuous
 62
     7
370
    25
100
AcDbCircle
 10
-0.0495931439
 20
0.2349976754
 30
0.0
 40
3.499999999999993
  0
LINE
  5
C9
330
1F
100
AcDbEntity
  8
0
  6
Continuous
 62
     7
370
    25
100
AcDbLine
 10
5.7410186788
 20
2.9138789308
 30
0.0
 11
5.8771562555
 21
2.9768595646
 31
0.0
  0
LINE
  5
CA
330
1F
100
AcDbEntity
  8
0
  6
Continuous
 62
     7
370
    25
100
AcDbLine
 10
-5.1957492622
 20
-3.5365626475
 30
0.0
 11
-5.3167356526
 21
-3.6252322213
 31
0.0
  0
LINE
  5
CB
330
1F
100
AcDbEntity
  8
0
  6
Continuous
 62
     7
370
    25
100
AcDbLine
 10
22.4347398086
 20
9.7779060257
 30
0.0
 11
22.5847398086
 21
9.7779060257
 31
0.0
  0
LINE
  5
CC
330
1F
100
AcDbEntity
  8
0
  6
Continuous
 62
     7
370
    25
100
AcDbLine
 10
10.0315479788
 20
-6.7844819249
 30
0.0
 11
10.0737550335
 21
-6.9284213723
 31
0.0
  0
LINE
  5
CD
330
1F
100
AcDbEntity
  8
0
  6
Continuous
 62
     7
370
    25
100
AcDbLine
 10
14.7347398086
 20
9.7779060257
 30
0.0
 11
14.5847398086
 21
9.7779060257
 31
0.0
  0
LINE
  5
CE
330
1F
100
AcDbEntity
  8
0
  6
Continuous
 62
     7
370
    25
100
AcDbLine
 10
6.3306568561
 20
-38.0
 30
0.0
 11
6.3306568561
 21
-11.7264029544
 31
0.0
  0
LINE
  5
CF
330
1F
100
AcDbEntity
  8
0
  6
Continuous
 62
     7
370
    25
100
AcDbLine
 10
-5.3693431439
 20
-40.15
 30
0.0
 11
-5.3693431439
 21
-49.8490505949
 31
0.0
  0
LINE
  5
D0
330
1F
100
AcDbEntity
  8
0
  6
Continuous
 62
     7
370
    25
100
AcDbLine
 10
-3.6193431439
 20
-40.15
 30
0.0
 11
-5.3693431439
 21
-40.15
 31
0.0
  0
LINE
  5
D1
330
1F
100
AcDbEntity
  8
0
  6
Continuous
 62
     7
370
    25
100
AcDbLine
 10
-3.6193431439
 20
-8.3542761589
 30
0.0
 11
-3.6193431439
 21
-40.15
 31
0.0
  0
LINE
  5
D2
330
1F
100
AcDbEntity
  8
0
  6
Continuous
 62
     7
370
    25
100
AcDbLine
 10
8.1117260533
 20
1.7079046243
 30
0.0
 11
8.0824654411
 21
1.8550230003
 31
0.0
  0
LINE
  5
D3
330
1F
100
AcDbEntity
  8
0
  6
Continuous
 62
     7
370
    25
100
AcDbLine
 10
6.3306568561
 20
-11.7264029544
 30
0.0
 11
6.4806568561
 21
-11.7264029544
 31
0.0
  0
LINE
  5
D4
330
1F
100
AcDbEntity
  8
0
  6
Continuous
 62
     7
370
    25
100
AcDbLine
 10
6.4806568561
 20
-11.7264029544
 30
0.0
 11
6.4806568561
 21
-38.0
 31
0.0
  0
LINE
  5
D5
330
1F
100
AcDbEntity
  8
0
  6
Continuous
 62
     7
370
    25
100
AcDbLine
 10
6.3306568561
 20
-38.0
 30
0.0
 11
6.4806568561
 21
-38.0
 31
0.0
  0
LINE
  5
D6
330
1F
100
AcDbEntity
  8
0
  6
Continuous
 62
     7
370
    25
100
AcDbLine
 10
-3.6193431439
 20
-8.3542761589
 30
0.0
 11
-3.7693431439
 21
-8.3542761589
 31
0.0
  0
LINE
  5
D7
330
1F
100
AcDbEntity
  8
0
  6
Continuous
 62
     7
370
    25
100
AcDbLine
 10
-5.3693431439
 20
-40.15
 30
0.0
 11
-5.5193431439
 21
-40.0
 31
0.0
  0
LINE
  5
D8
330
1F
100
AcDbEntity
  8
0
  6
Continuous
 62
     7
370
    25
100
AcDbLine
 10
-5.5193431439
 20
-40.0
 30
0.0
 11
-3.7693431439
 21
-40.0
 31
0.0
  0
LINE
  5
D9
330
1F
100
AcDbEntity
  8
0
  6
Continuous
 62
     7
370
    25
100
AcDbLine
 10
-3.6193431439
 20
-40.15
 30
0.0
 11
-3.7693431439
 21
-40.0
 31
0.0
  0
LINE
  5
DA
330
1F
100
AcDbEntity
  8
0
  6
Continuous
 62
     7
370
    25
100
AcDbLine
 10
-3.7693431439
 20
-40.0
 30
0.0
 11
-3.7693431439
 21
-8.3542761589
 31
0.0
  0
LINE
  5
DB
330
1F
100
AcDbEntity
  8
0
  6
Continuous
 62
     7
370
    25
100
AcDbLine
 10
-5.5193431439
 20
-50.0
 30
0.0
 11
-5.5193431439
 21
-40.0
 31
0.0
  0
ARC
  5
DC
330
1F
100
AcDbEntity
  8
0
  6
Continuous
 62
     7
370
    25
100
AcDbCircle
 10
-0.0495931439
 20
0.2349976754
 30
0.0
 40
6.380249999999996
100
AcDbArc
 50
24.8264366
 51
69.6028223097
  0
ARC
  5
DD
330
1F
100
AcDbEntity
  8
0
  6
Continuous
 62
     7
370
    25
100
AcDbCircle
 10
-0.0495931439
 20
0.2349976754
 30
0.0
 40
6.530249999999975
100
AcDbArc
 50
24.8264366
 51
67.8222748077
  0
ARC
  5
DE
330
1F
100
AcDbEntity
  8
0
  6
Continuous
 62
     7
370
    25
100
AcDbCircle
 10
-0.2559490361
 20
8.2195495829
 30
0.0
 40
3.15
100
AcDbArc
 50
320.483436976
 51
20.0895861204
  0
ARC
  5
DF
330
1F
100
AcDbEntity
  8
0
  6
Continuous
 62
     7
370
    25
100
AcDbCircle
 10
-0.2559490361
 20
8.2195495829
 30
0.0
 40
3.30000000000001
100
AcDbArc
 50
324.0485857532
 51
21.3939091249
  0
ARC
  5
E0
330
1F
100
AcDbEntity
  8
0
  6
Continuous
 62
     7
370
    25
100
AcDbCircle
 10
4.1213922547
 20
7.046644519
 30
0.0
 40
3.300000000000012
100
AcDbArc
 50
128.6060908751
 51
185.9514142468
  0
ARC
  5
E1
330
1F
100
AcDbEntity
  8
0
  6
Continuous
 62
     7
370
    25
100
AcDbCircle
 10
4.1213922547
 20
7.046644519
 30
0.0
 40
3.150000000000006
100
AcDbArc
 50
129.9104138797
 51
189.516563024
  0
ARC
  5
E2
330
1F
100
AcDbEntity
  8
0
  6
Continuous
 62
     7
370
    25
100
AcDbCircle
 10
-0.0495931439
 20
0.2349976754
 30
0.0
 40
6.530250000000247
100
AcDbArc
 50
82.1777251923
 51
97.8222748077
  0
ARC
  5
E3
330
1F
100
AcDbEntity
  8
0
  6
Continuous
 62
     7
370
    25
100
AcDbCircle
 10
-0.0495931439
 20
0.2349976754
 30
0.0
 40
6.380250000000056
100
AcDbArc
 50
80.3971776903
 51
99.6028223097
  0
ARC
  5
E4
330
1F
100
AcDbEntity
  8
0
  6
Continuous
 62
     7
370
    25
100
AcDbCircle
 10
-4.2205785425
 20
7.046644519
 30
0.0
 40
3.30000000000001
100
AcDbArc
 50
354.0485857532
 51
51.3939091249
  0
ARC
  5
E5
330
1F
100
AcDbEntity
  8
0
  6
Continuous
 62
     7
370
    25
100
AcDbCircle
 10
-4.2205785425
 20
7.046644519
 30
0.0
 40
3.15
100
AcDbArc
 50
350.483436976
 51
50.0895861204
  0
ARC
  5
E6
330
1F
100
AcDbEntity
  8
0
  6
Continuous
 62
     7
370
    25
100
AcDbCircle
 10
-0.0495931439
 20
0.2349976754
 30
0.0
 40
6.530250000000084
100
AcDbArc
 50
112.1777251923
 51
127.8222748077
  0
ARC
  5
E7
330
1F
100
AcDbEntity
  8
0
  6
Continuous
 62
     7
370
    25
100
AcDbCircle
 10
-0.0495931439
 20
0.2349976754
 30
0.0
 40
6.380250000000216
100
AcDbArc
 50
110.3971776903
 51
129.6028223097
  0
ARC
  5
E8
330
1F
100
AcDbEntity
  8
0
  6
Continuous
 62
     7
370
    25
100
AcDbCircle
 10
0.1567627483
 20
8.2195495829
 30
0.0
 40
3.3
100
AcDbArc
 50
158.6060908751
 51
215.9514142468
  0
ARC
  5
E9
330
1F
100
AcDbEntity
  8
0
  6
Continuous
 62
     7
370
    25
100
AcDbCircle
 10
0.1567627483
 20
8.2195495829
 30
0.0
 40
3.149999999999999
100
AcDbArc
 50
159.9104138796
 51
219.516563024
  0
ARC
  5
EA
330
1F
100
AcDbEntity
  8
0
  6
Continuous
 62
     7
370
    25
100
AcDbCircle
 10
-7.0675958797
 20
4.0485641843
 30
0.0
 40
3.299999999999994
100
AcDbArc
 50
24.0485857532
 51
81.3939091249
  0
ARC
  5
EB
330
1F
100
AcDbEntity
  8
0
  6
Continuous
 62
     7
370
    25
100
AcDbCircle
 10
-7.0675958797
 20
4.0485641843
 30
0.0
 40
3.149999999999998
100
AcDbArc
 50
20.483436976
 51
80.0895861204
  0
ARC
  5
EC
330
1F
100
AcDbEntity
  8
0
  6
Continuous
 62
     7
370
    25
100
AcDbCircle
 10
-3.8631596528
 20
7.2530004112
 30
0.0
 40
3.299999999999993
100
AcDbArc
 50
188.6060908751
 51
245.9514142468
  0
ARC
  5
ED
330
1F
100
AcDbEntity
  8
0
  6
Continuous
 62
     7
370
    25
100
AcDbCircle
 10
-3.8631596528
 20
7.2530004112
 30
0.0
 40
3.149999999999996
100
AcDbArc
 50
189.9104138797
 51
249.516563024
  0
ARC
  5
EE
330
1F
100
AcDbEntity
  8
0
  6
Continuous
 62
     7
370
    25
100
AcDbCircle
 10
-0.0495931439
 20
0.2349976754
 30
0.0
 40
6.530250000000079
100
AcDbArc
 50
142.1777251923
 51
157.8222748077
  0
ARC
  5
EF
330
1F
100
AcDbEntity
  8
0
  6
Continuous
 62
     7
370
    25
100
AcDbCircle
 10
-0.0495931439
 20
0.2349976754
 30
0.0
 40
6.380250000000085
100
AcDbArc
 50
140.3971776903
 51
159.6028223097
  0
ARC
  5
F0
330
1F
100
AcDbEntity
  8
0
  6
Continuous
 62
     7
370
    25
100
AcDbCircle
 10
-0.0495931439
 20
0.2349976754
 30
0.0
 40
6.380250000000177
100
AcDbArc
 50
200.3971776903
 51
216.2372724595
  0
ARC
  5
F1
330
1F
100
AcDbEntity
  8
0
  6
Continuous
 62
     7
370
    25
100
AcDbCircle
 10
-0.0495931439
 20
0.2349976754
 30
0.0
 40
6.530250000000377
100
AcDbArc
 50
202.1777251923
 51
216.2372724595
  0
ARC
  5
F2
330
1F
100
AcDbEntity
  8
0
  6
Continuous
 62
     7
370
    25
100
AcDbCircle
 10
-8.0341450514
 20
0.4413535676
 30
0.0
 40
3.149999999999999
100
AcDbArc
 50
249.9104138797
 51
309.516563024
  0
ARC
  5
F3
330
1F
100
AcDbEntity
  8
0
  6
Continuous
 62
     7
370
    25
100
AcDbCircle
 10
-8.0341450514
 20
0.4413535676
 30
0.0
 40
3.299999999999981
100
AcDbArc
 50
248.6060908751
 51
305.9514142468
  0
ARC
  5
F4
330
1F
100
AcDbEntity
  8
0
  6
Continuous
 62
     7
370
    25
100
AcDbCircle
 10
-8.0341450514
 20
0.0286417832
 30
0.0
 40
3.300000000000016
100
AcDbArc
 50
54.0485857532
 51
111.3939091249
  0
ARC
  5
F5
330
1F
100
AcDbEntity
  8
0
  6
Continuous
 62
     7
370
    25
100
AcDbCircle
 10
-8.0341450514
 20
0.0286417832
 30
0.0
 40
3.149999999999999
100
AcDbArc
 50
50.483436976
 51
110.0895861203
  0
ARC
  5
F6
330
1F
100
AcDbEntity
  8
0
  6
Continuous
 62
     7
370
    25
100
AcDbCircle
 10
-0.0495931439
 20
0.2349976754
 30
0.0
 40
6.530250000000358
100
AcDbArc
 50
172.1777251923
 51
187.8222748077
  0
ARC
  5
F7
330
1F
100
AcDbEntity
  8
0
  6
Continuous
 62
     7
370
    25
100
AcDbCircle
 10
-0.0495931439
 20
0.2349976754
 30
0.0
 40
6.380250000000149
100
AcDbArc
 50
170.3971776903
 51
189.6028223097
  0
ARC
  5
F8
330
1F
100
AcDbEntity
  8
0
  6
Continuous
 62
     7
370
    25
100
AcDbCircle
 10
-6.8612399875
 20
-3.9359877233
 30
0.0
 40
3.300000000000032
100
AcDbArc
 50
84.0485857532
 51
141.3939091249
  0
ARC
  5
F9
330
1F
100
AcDbEntity
  8
0
  6
Continuous
 62
     7
370
    25
100
AcDbCircle
 10
-6.8612399875
 20
-3.9359877233
 30
0.0
 40
3.149999999999996
100
AcDbArc
 50
80.483436976
 51
140.0895861204
  0
ARC
  5
FA
330
1F
100
AcDbEntity
  8
0
  6
Continuous
 62
     7
370
    25
100
AcDbCircle
 10
-6.8612399875
 20
4.405983074
 30
0.0
 40
3.299999999999999
100
AcDbArc
 50
218.6060908751
 51
275.9514142468
  0
ARC
  5
FB
330
1F
100
AcDbEntity
  8
0
  6
Continuous
 62
     7
370
    25
100
AcDbCircle
 10
-6.8612399875
 20
4.405983074
 30
0.0
 40
3.150000000000011
100
AcDbArc
 50
219.9104138797
 51
279.516563024
  0
ARC
  5
FC
330
1F
100
AcDbEntity
  8
0
  6
Continuous
 62
     7
370
    25
100
AcDbCircle
 10
-0.0495931439
 20
0.2349976754
 30
0.0
 40
9.474999999997475
100
AcDbArc
 50
73.1152657801
 51
76.8847342199
  0
ARC
  5
FD
330
1F
100
AcDbEntity
  8
0
  6
Continuous
 62
     7
370
    25
100
AcDbCircle
 10
-0.0495931439
 20
0.2349976754
 30
0.0
 40
9.624999999998009
100
AcDbArc
 50
72.6749146517
 51
77.3250853483
  0
ARC
  5
FE
330
1F
100
AcDbEntity
  8
0
  6
Continuous
 62
     7
370
    25
100
AcDbCircle
 10
-0.0495931439
 20
0.2349976754
 30
0.0
 40
9.624999999999298
100
AcDbArc
 50
102.6749146517
 51
107.3250853483
  0
ARC
  5
FF
330
1F
100
AcDbEntity
  8
0
  6
Continuous
 62
     7
370
    25
100
AcDbCircle
 10
-0.0495931439
 20
0.2349976754
 30
0.0
 40
9.474999999997882
100
AcDbArc
 50
103.1152657801
 51
106.8847342199
  0
ARC
  5
100
330
1F
100
AcDbEntity
  8
0
  6
Continuous
 62
     7
370
    25
100
AcDbCircle
 10
-0.0495931439
 20
0.2349976754
 30
0.0
 40
9.624999999998652
100
AcDbArc
 50
132.6749146517
 51
137.3250853483
  0
ARC
  5
101
330
1F
100
AcDbEntity
  8
0
  6
Continuous
 62
     7
370
    25
100
AcDbCircle
 10
-0.0495931439
 20
0.2349976754
 30
0.0
 40
9.474999999994088
100
AcDbArc
 50
133.1152657801
 51
136.8847342199
  0
ARC
  5
102
330
1F
100
AcDbEntity
  8
0
  6
Continuous
 62
     7
370
    25
100
AcDbCircle
 10
-0.0495931439
 20
0.2349976754
 30
0.0
 40
9.624999999994508
100
AcDbArc
 50
162.6749146517
 51
167.3250853483
  0
ARC
  5
103
330
1F
100
AcDbEntity
  8
0
  6
Continuous
 62
     7
370
    25
100
AcDbCircle
 10
-0.0495931439
 20
0.2349976754
 30
0.0
 40
9.474999999997037
100
AcDbArc
 50
163.1152657801
 51
166.8847342199
  0
ARC
  5
104
330
1F
100
AcDbEntity
  8
0
  6
Continuous
 62
     7
370
    25
100
AcDbCircle
 10
-0.0495931439
 20
0.2349976754
 30
0.0
 40
9.47499999999909
100
AcDbArc
 50
193.1152657801
 51
196.8847342199
  0
ARC
  5
105
330
1F
100
AcDbEntity
  8
0
  6
Continuous
 62
     7
370
    25
100
AcDbCircle
 10
-0.0495931439
 20
0.2349976754
 30
0.0
 40
9.625000000000446
100
AcDbArc
 50
192.6749146517
 51
197.3250853483
  0
ARC
  5
106
330
1F
100
AcDbEntity
  8
0
  6
Continuous
 62
     7
370
    25
100
AcDbCircle
 10
5.1749945726
 20
9.7779060257
 30
0.0
 40
17.25974523598471
100
AcDbArc
 50
286.3426064585
 51
0.0
  0
ARC
  5
107
330
1F
100
AcDbEntity
  8
0
  6
Continuous
 62
     7
370
    25
100
AcDbCircle
 10
5.1749945726
 20
9.7779060257
 30
0.0
 40
17.40974523598474
100
AcDbArc
 50
286.3426064585
 51
0.0
  0
ARC
  5
108
330
1F
100
AcDbEntity
  8
0
  6
Continuous
 62
     7
370
    25
100
AcDbCircle
 10
18.5847398086
 20
9.7779060257
 30
0.0
 40
3.850000000000001
100
AcDbArc
 50
0.0
 51
180.0
  0
ARC
  5
109
330
1F
100
AcDbEntity
  8
0
  6
Continuous
 62
     7
370
    25
100
AcDbCircle
 10
18.5847398086
 20
9.7779060257
 30
0.0
 40
4.000000000000004
100
AcDbArc
 50
0.0
 51
180.0
  0
ARC
  5
10A
330
1F
100
AcDbEntity
  8
0
  6
Continuous
 62
     7
370
    25
100
AcDbCircle
 10
7.6923239441
 20
3.8166013475
 30
0.0
 40
2.149999999999997
100
AcDbArc
 50
204.8264366
 51
281.2488565494
  0
ARC
  5
10B
330
1F
100
AcDbEntity
  8
0
  6
Continuous
 62
     7
370
    25
100
AcDbCircle
 10
6.5066703942
 20
9.7779060257
 30
0.0
 40
8.228069414361258
100
AcDbArc
 50
281.2488565494
 51
0.0
  0
ARC
  5
10C
330
1F
100
AcDbEntity
  8
0
  6
Continuous
 62
     7
370
    25
100
AcDbCircle
 10
11.4806568561
 20
-11.7264029544
 30
0.0
 40
5.149999999999993
100
AcDbArc
 50
106.3426064585
 51
180.0
  0
ARC
  5
10D
330
1F
100
AcDbEntity
  8
0
  6
Continuous
 62
     7
370
    25
100
AcDbCircle
 10
-5.5193431439
 20
-38.0
 30
0.0
 40
11.85
100
AcDbArc
 50
270.7252824014
 51
0.0
  0
ARC
  5
10E
330
1F
100
AcDbEntity
  8
0
  6
Continuous
 62
     7
370
    25
100
AcDbCircle
 10
-11.7693431439
 20
-8.3542761589
 30
0.0
 40
8.150000000000011
100
AcDbArc
 50
0.0
 51
36.2372724595
  0
ARC
  5
10F
330
1F
100
AcDbEntity
  8
0
  6
Continuous
 62
     7
370
    25
100
AcDbCircle
 10
6.5066703942
 20
9.7779060257
 30
0.0
 40
8.078069414361218
100
AcDbArc
 50
281.2488565494
 51
0.0
  0
ARC
  5
110
330
1F
100
AcDbEntity
  8
0
  6
Continuous
 62
     7
370
    25
100
AcDbCircle
 10
11.4806568561
 20
-11.7264029544
 30
0.0
 40
4.999999999999999
100
AcDbArc
 50
106.3426064585
 51
180.0
  0
ARC
  5
111
330
1F
100
AcDbEntity
  8
0
  6
Continuous
 62
     7
370
    25
100
AcDbCircle
 10
7.6923239441
 20
3.8166013475
 30
0.0
 40
1.999999999999998
100
AcDbArc
 50
204.8264366
 51
281.2488565494
  0
ARC
  5
112
330
1F
100
AcDbEntity
  8
0
  6
Continuous
 62
     7
370
    25
100
AcDbCircle
 10
-5.5193431439
 20
-38.0
 30
0.0
 40
12.00000000000002
100
AcDbArc
 50
270.0
 51
0.0
  0
ARC
  5
113
330
1F
100
AcDbEntity
  8
0
  6
Continuous
 62
     7
370
    25
100
AcDbCircle
 10
-11.7693431439
 20
-8.3542761589
 30
0.0
 40
8.000000000000073
100
AcDbArc
 50
0.0
 51
36.2372724595
  0
MTEXT
  5
115
330
1F
100
AcDbEntity
  8
0
  6
Continuous
 62
     7
100
AcDbMText
 10
-9.4400386692
 20
-51.0195663917
 30
0.0
 40
4.83362
 41
0.0
 71
     1
 72
     1
  1
Producto SOLIDWORKS Educational.
  7
SLDTEXTSTYLE0
 73
     1
 44
1.0
  0
MTEXT
  5
116
330
1F
100
AcDbEntity
  8
0
  6
Continuous
 62
     7
100
AcDbMText
 10
-9.4400386692
 20
-58.2699963917
 30
0.0
 40
4.83362
 41
0.0
 71
     1
 72
     1
  1
Solo para uso en la enseanza.
  7
SLDTEXTSTYLE0
 73
     1
 44
1.0
  0
ENDSEC
  0
SECTION
  2
OBJECTS
  0
DICTIONARY
  5
C
330
0
100
AcDbDictionary
281
     1
  3
ACAD_GROUP
350
D
  3
ACAD_LAYOUT
350
1A
  3
ACAD_MLINESTYLE
350
17
  3
ACAD_PLOTSETTINGS
350
19
  3
ACAD_PLOTSTYLENAME
350
E
  3
ACAD_SCALELIST
350
47
  3
DWGPROPS
350
117
  0
DICTIONARY
  5
D
102
{ACAD_REACTORS
330
C
102
}
330
C
100
AcDbDictionary
281
     1
  0
DICTIONARY
  5
1A
102
{ACAD_REACTORS
330
C
102
}
330
C
100
AcDbDictionary
281
     1
  3
Layout1
350
1E
  3
Layout2
350
26
  3
Model
350
22
  0
DICTIONARY
  5
17
102
{ACAD_REACTORS
330
C
102
}
330
C
100
AcDbDictionary
281
     1
  3
Standard
350
18
  0
DICTIONARY
  5
19
102
{ACAD_REACTORS
330
C
102
}
330
C
100
AcDbDictionary
281
     1
  0
ACDBDICTIONARYWDFLT
  5
E
102
{ACAD_REACTORS
330
C
102
}
330
C
100
AcDbDictionary
281
     1
  3
Normal
350
F
100
AcDbDictionaryWithDefault
340
F
  0
DICTIONARY
  5
47
102
{ACAD_REACTORS
330
C
102
}
330
C
100
AcDbDictionary
281
     1
  3
A0
350
48
  3
A1
350
49
  3
A2
350
4A
  3
A3
350
4B
  3
A4
350
4C
  3
A5
350
4D
  3
A6
350
4E
  3
A7
350
4F
  3
A8
350
50
  3
A9
350
51
  3
B0
350
52
  3
B1
350
53
  3
B2
350
54
  3
B3
350
55
  3
B4
350
56
  3
B5
350
57
  3
B6
350
58
  0
XRECORD
  5
117
102
{ACAD_REACTORS
330
C
102
}
330
C
100
AcDbXrecord
280
     1
  1
DWGPROPS COOKIE
  2

  3

  4

  6

  7

  8
windigital
  9

300
=
301
=
302
=
303
=
304
=
305
=
306
=
307
=
308
=
309
=
 40
0.0
 41
2460462.145938183
 42
2460462.14595485
  1

 90
        0
  0
LAYOUT
  5
1E
102
{ACAD_REACTORS
330
1A
102
}
330
1A
100
AcDbPlotSettings
  1

  2
none_device
  4

  6

 40
0.0
 41
0.0
 42
0.0
 43
0.0
 44
0.0
 45
0.0
 46
0.0
 47
0.0
 48
0.0
 49
0.0
140
0.0
141
0.0
142
1.0
143
1.0
 70
   688
 72
     1
 73
     0
 74
     5
  7

 75
    16
147
1.0
148
0.0
149
0.0
100
AcDbLayout
  1
Layout1
 70
     1
 71
     1
 10
0.0
 20
0.0
 11
420.0
 21
297.0
 12
0.0
 22
0.0
 32
0.0
 14
1.0000000000E+20
 24
1.0000000000E+20
 34
1.0000000000E+20
 15
-1.0000000000E+20
 25
-1.0000000000E+20
 35
-1.0000000000E+20
146
0.0
 13
0.0
 23
0.0
 33
0.0
 16
1.0
 26
0.0
 36
0.0
 17
0.0
 27
1.0
 37
0.0
 76
     0
330
1B
  0
LAYOUT
  5
26
102
{ACAD_REACTORS
330
1A
102
}
330
1A
100
AcDbPlotSettings
  1

  2
none_device
  4

  6

 40
0.0
 41
0.0
 42
0.0
 43
0.0
 44
0.0
 45
0.0
 46
0.0
 47
0.0
 48
0.0
 49
0.0
140
0.0
141
0.0
142
1.0
143
1.0
 70
   688
 72
     1
 73
     0
 74
     5
  7

 75
    16
147
1.0
148
0.0
149
0.0
100
AcDbLayout
  1
Layout2
 70
     1
 71
     2
 10
0.0
 20
0.0
 11
0.0
 21
0.0
 12
0.0
 22
0.0
 32
0.0
 14
0.0
 24
0.0
 34
0.0
 15
0.0
 25
0.0
 35
0.0
146
0.0
 13
0.0
 23
0.0
 33
0.0
 16
1.0
 26
0.0
 36
0.0
 17
0.0
 27
1.0
 37
0.0
 76
     0
330
23
  0
LAYOUT
  5
22
102
{ACAD_REACTORS
330
1A
102
}
330
1A
100
AcDbPlotSettings
  1

  2
none_device
  4
ANSI_A_(11.00_x_8.50_Inches)
  6

 40
6.35
 41
19.05
 42
6.35000508
 43
19.05000254
 44
279.4
 45
215.9
 46
111.3238622252
 47
149.5961478404
 48
0.0
 49
0.0
140
0.0
141
0.0
142
0.1319422434
143
1.0
 70
  1696
 72
     0
 73
     0
 74
     0
  7

 75
     0
147
0.0179189148
148
-1300.4909072572
149
0.0
100
AcDbLayout
  1
Model
 70
     1
 71
     0
 10
0.0
 20
0.0
 11
420.0
 21
297.0
 12
0.0
 22
0.0
 32
0.0
 14
-9.4400386692
 24
-50.0
 34
0.0
 15
22.5847398086
 25
13.7779060257
 35
0.0
146
0.0
 13
0.0
 23
0.0
 33
0.0
 16
1.0
 26
0.0
 36
0.0
 17
0.0
 27
1.0
 37
0.0
 76
     0
330
1F
331
29
  0
MLINESTYLE
  5
18
102
{ACAD_REACTORS
330
17
102
}
330
17
100
AcDbMlineStyle
  2
Standard
 70
     0
  3

 62
   256
 51
90.0
 52
90.0
 71
     2
 49
0.5
 62
   256
  6
BYLAYER
 49
-0.5
 62
   256
  6
BYLAYER
  0
ACDBPLACEHOLDER
  5
F
102
{ACAD_REACTORS
330
E
102
}
330
E
  0
SCALE
  5
48
102
{ACAD_REACTORS
330
47
102
}
330
47
100
AcDbScale
 70
     0
300
1:1
140
1.0
141
1.0
290
     1
  0
SCALE
  5
49
102
{ACAD_REACTORS
330
47
102
}
330
47
100
AcDbScale
 70
     0
300
1:2
140
1.0
141
2.0
290
     0
  0
SCALE
  5
4A
102
{ACAD_REACTORS
330
47
102
}
330
47
100
AcDbScale
 70
     0
300
1:4
140
1.0
141
4.0
290
     0
  0
SCALE
  5
4B
102
{ACAD_REACTORS
330
47
102
}
330
47
100
AcDbScale
 70
     0
300
1:5
140
1.0
141
5.0
290
     0
  0
SCALE
  5
4C
102
{ACAD_REACTORS
330
47
102
}
330
47
100
AcDbScale
 70
     0
300
1:8
140
1.0
141
8.0
290
     0
  0
SCALE
  5
4D
102
{ACAD_REACTORS
330
47
102
}
330
47
100
AcDbScale
 70
     0
300
1:10
140
1.0
141
10.0
290
     0
  0
SCALE
  5
4E
102
{ACAD_REACTORS
330
47
102
}
330
47
100
AcDbScale
 70
     0
300
1:16
140
1.0
141
16.0
290
     0
  0
SCALE
  5
4F
102
{ACAD_REACTORS
330
47
102
}
330
47
100
AcDbScale
 70
     0
300
1:20
140
1.0
141
20.0
290
     0
  0
SCALE
  5
50
102
{ACAD_REACTORS
330
47
102
}
330
47
100
AcDbScale
 70
     0
300
1:30
140
1.0
141
30.0
290
     0
  0
SCALE
  5
51
102
{ACAD_REACTORS
330
47
102
}
330
47
100
AcDbScale
 70
     0
300
1:40
140
1.0
141
40.0
290
     0
  0
SCALE
  5
52
102
{ACAD_REACTORS
330
47
102
}
330
47
100
AcDbScale
 70
     0
300
1:50
140
1.0
141
50.0
290
     0
  0
SCALE
  5
53
102
{ACAD_REACTORS
330
47
102
}
330
47
100
AcDbScale
 70
     0
300
1:100
140
1.0
141
100.0
290
     0
  0
SCALE
  5
54
102
{ACAD_REACTORS
330
47
102
}
330
47
100
AcDbScale
 70
     0
300
2:1
140
2.0
141
1.0
290
     0
  0
SCALE
  5
55
102
{ACAD_REACTORS
330
47
102
}
330
47
100
AcDbScale
 70
     0
300
4:1
140
4.0
141
1.0
290
     0
  0
SCALE
  5
56
102
{ACAD_REACTORS
330
47
102
}
330
47
100
AcDbScale
 70
     0
300
8:1
140
8.0
141
1.0
290
     0
  0
SCALE
  5
57
102
{ACAD_REACTORS
330
47
102
}
330
47
100
AcDbScale
 70
     0
300
10:1
140
10.0
141
1.0
290
     0
  0
SCALE
  5
58
102
{ACAD_REACTORS
330
47
102
}
330
47
100
AcDbScale
 70
     0
300
100:1
140
100.0
141
1.0
290
     0
  0
ENDSEC
  0
EOF
